<svg width="178" height="178" viewBox="0 0 178 178" fill="none" xmlns="http://www.w3.org/2000/svg">
<g style="mix-blend-mode:multiply">
<ellipse cx="90.5" cy="128.5" rx="44.5" ry="6.5" fill="url(#paint0_radial_1801_33429)" fill-opacity="0.2"/>
</g>
<circle opacity="0.5" cx="89" cy="89" r="89" fill="url(#paint1_radial_1801_33429)"/>
<circle cx="46" cy="112.5" r="0.5" fill="#E9A098"/>
<path d="M47 41.75C47 37.0625 50.9063 33 55.75 33C59.8125 33 64.0313 33 68.25 33C70.2813 33 72 34.7188 72 36.75C72 38.9375 70.2813 40.5 68.25 40.5C64.0313 40.5 59.8125 40.5 55.75 40.5C54.9688 40.5 54.5 41.125 54.5 41.75C54.5 45.9688 54.5 50.1875 54.5 54.25C54.5 56.4375 52.7813 58 50.75 58C48.5625 58 47 56.4375 47 54.25C47 50.1875 47 45.9688 47 41.75ZM47 91.75C47 89.7188 48.5625 88 50.75 88C52.7813 88 54.5 89.7188 54.5 91.75C54.5 95.9688 54.5 100.188 54.5 104.25C54.5 105.031 54.9688 105.5 55.75 105.5C59.8125 105.5 64.0313 105.5 68.25 105.5C70.2813 105.5 72 107.219 72 109.25C72 111.438 70.2813 113 68.25 113C64.0313 113 59.8125 113 55.75 113C50.9063 113 47 109.094 47 104.25C47 100.188 47 95.9688 47 91.75ZM62 73C62 64.0938 66.6875 55.8125 74.5 51.4375C82.1563 46.9063 91.6875 46.9063 99.5 51.4375C105.281 54.7188 109.344 60.1875 111.063 66.5938C106.219 69.25 102.313 73.3125 99.8125 78.3125C98.875 77.8438 97.625 78 96.8438 78.7813C94.3438 81.4375 90.75 83 86.8438 83C82.9375 83 79.5 81.4375 77 78.7813C76.0625 77.8438 74.5 77.8438 73.4063 78.7813C72.4688 79.7188 72.4688 81.2813 73.4063 82.2188C76.8438 85.8125 81.6875 88 87 88C90.9063 88 94.5 86.9063 97.4688 84.7188C97.1563 86.5938 97 88.625 97 90.5C97 92.375 97.1563 94.0938 97.4688 95.8125C90.125 99.0938 81.5313 98.7813 74.5 94.7188C66.6875 90.1875 62 82.0625 62 73ZM74.5 66.75C74.5 68.9375 76.0625 70.5 78.25 70.5C80.2813 70.5 82 68.9375 82 66.75C82 64.7188 80.2813 63 78.25 63C76.0625 63 74.5 64.7188 74.5 66.75ZM92 66.75C92 68.9375 93.5625 70.5 95.75 70.5C97.7813 70.5 99.5 68.9375 99.5 66.75C99.5 64.7188 97.7813 63 95.75 63C93.5625 63 92 64.7188 92 66.75ZM102 36.75C102 34.7188 103.563 33 105.75 33C109.813 33 114.031 33 118.25 33C122.938 33 127 37.0625 127 41.75C127 45.9688 127 50.1875 127 54.25C127 56.4375 125.281 58 123.25 58C121.063 58 119.5 56.4375 119.5 54.25C119.5 50.1875 119.5 45.9688 119.5 41.75C119.5 41.125 118.875 40.5 118.25 40.5C114.031 40.5 109.813 40.5 105.75 40.5C103.563 40.5 102 38.9375 102 36.75ZM102 90.5C102 78.1563 112 68 124.5 68C136.844 68 147 78.1563 147 90.5C147 103 136.844 113 124.5 113C112 113 102 103 102 90.5ZM102 109.25C102 108.625 102.156 107.844 102.625 107.219C104.188 109.406 106.375 111.438 108.563 113C107.625 113 106.688 113 105.75 113C103.563 113 102 111.438 102 109.25ZM115.125 81.2813C114.188 82.2188 114.188 83.9375 115.125 84.875C117 86.75 119.031 88.625 120.906 90.5C119.031 92.5313 117 94.4063 115.125 96.2813C114.188 97.2188 114.188 98.9375 115.125 99.875C116.063 100.813 117.781 100.813 118.719 99.875C120.594 98 122.469 95.9688 124.5 94.0938C126.375 95.9688 128.25 98 130.125 99.875C131.063 100.813 132.781 100.813 133.719 99.875C134.656 98.9375 134.656 97.2188 133.719 96.2813C131.844 94.4063 129.813 92.5313 127.938 90.5C129.813 88.625 131.844 86.75 133.719 84.875C134.656 83.9375 134.656 82.2188 133.719 81.2813C132.781 80.3438 131.063 80.3438 130.125 81.2813C128.25 83.1563 126.375 85.1875 124.5 87.0625C122.469 85.1875 120.594 83.1563 118.719 81.2813C117.781 80.3438 116.063 80.3438 115.125 81.2813Z" fill="#E28176"/>
<defs>
<radialGradient id="paint0_radial_1801_33429" cx="0" cy="0" r="1" gradientUnits="userSpaceOnUse" gradientTransform="translate(90.5 128.5) rotate(90) scale(6.5 44.5)">
<stop stop-color="#761717"/>
<stop offset="1" stop-color="#5144A6" stop-opacity="0"/>
<stop offset="1" stop-color="#BC3838" stop-opacity="0"/>
</radialGradient>
<radialGradient id="paint1_radial_1801_33429" cx="0" cy="0" r="1" gradientUnits="userSpaceOnUse" gradientTransform="translate(89 89) rotate(90) scale(89)">
<stop stop-color="#FFC7C7"/>
<stop offset="1" stop-color="#FEEEEE" stop-opacity="0"/>
</radialGradient>
</defs>
</svg>
